<?xml version="1.0" encoding="UTF-8" standalone="no"?>
<svg width="15px" height="25px" viewBox="0 0 15 25" version="1.1" xmlns="http://www.w3.org/2000/svg" xmlns:xlink="http://www.w3.org/1999/xlink">
    <!-- Generator: Sketch 3.6.1 (26313) - http://www.bohemiancoding.com/sketch -->
    <title>smartphone</title>
    <desc>Created with Sketch.</desc>
    <defs></defs>
    <g id="Page-1" stroke="none" stroke-width="1" fill="none" fill-rule="evenodd">
        <g id="smartphone" fill="#2CF0C4">
            <path d="M13.104372,0 L1.894543,0 C0.84793,0 0,0.781 0,1.746 L0,22.648 C0,23.613 0.84793,24.394 1.894543,24.394 L13.104372,24.394 C14.150984,24.394 15,23.613 15,22.648 L15,1.746 C15,0.781 14.150984,0 13.104372,0 L13.104372,0 L13.104372,0 Z M6.035394,1.394 L8.948321,1.394 C9.28163,1.394 9.551969,1.644 9.551969,1.951 C9.551969,2.259 9.28163,2.519 8.948321,2.519 L6.035394,2.519 C5.700999,2.519 5.43066,2.259 5.43066,1.951 C5.43066,1.644 5.700999,1.394 6.035394,1.394 L6.035394,1.394 L6.035394,1.394 Z M7.491314,23.475 C6.814925,23.475 6.266647,22.97 6.266647,22.347 C6.266647,21.725 6.814925,21.22 7.491314,21.22 C8.167704,21.22 8.715981,21.725 8.715981,22.347 C8.715981,22.97 8.167704,23.475 7.491314,23.475 L7.491314,23.475 L7.491314,23.475 Z M12.911118,19.467 C12.911118,20.022 12.422554,20.472 11.819991,20.472 L3.145266,20.472 C2.542704,20.472 2.05414,20.022 2.05414,19.467 L2.05414,4.915 C2.05414,4.36 2.542704,3.91 3.145266,3.91 L11.819991,3.91 C12.422554,3.91 12.911118,4.36 12.911118,4.915 L12.911118,19.467 L12.911118,19.467 L12.911118,19.467 Z"></path>
        </g>
    </g>
</svg>